<svg version="1.1" class="about-us-icon svg-icon" xmlns="http://www.w3.org/2000/svg" xmlns:xlink="http://www.w3.org/1999/xlink" x="0px" y="0px"
	 width="150px" viewBox="0 0 23.303 23.303" xml:space="preserve">
	<path d="M11.648,11.015c1.723,0,3.108-1.393,3.108-3.105c0.002-1.717-1.385-3.106-3.108-3.106c-1.711,0-3.1,1.389-3.1,3.106
		C8.548,9.624,9.937,11.015,11.648,11.015z"/>
	<path d="M14.141,11.521H9.163c-0.89,0-1.619,0.816-1.619,1.817v5c0,0.055,0.028,0.104,0.031,0.161h8.151
		c0.006-0.057,0.029-0.106,0.029-0.161v-5C15.758,12.337,15.029,11.521,14.141,11.521z"/>
	<path d="M20.008,12.497c1.383,0,2.492-1.113,2.492-2.488s-1.109-2.49-2.492-2.49c-1.373,0-2.484,1.115-2.484,2.49
		C17.521,11.383,18.635,12.497,20.008,12.497z"/>
	<path d="M22.007,12.903h-3.989c-0.716,0-1.301,0.654-1.301,1.459v4.006c0,0.043,0.021,0.084,0.024,0.131h6.538
		c0.003-0.047,0.023-0.088,0.023-0.131v-4.006C23.305,13.557,22.721,12.903,22.007,12.903z"/>
	<path d="M3.292,12.497c1.381,0,2.491-1.113,2.491-2.488s-1.11-2.49-2.491-2.49c-1.374,0-2.485,1.115-2.485,2.49
		S1.918,12.497,3.292,12.497L3.292,12.497z"/>
	<path d="M5.29,12.903H1.297C0.583,12.903,0,13.557,0,14.362v4.006c0,0.043,0.021,0.084,0.025,0.131h6.538
		c0.003-0.047,0.022-0.088,0.022-0.131v-4.006C6.587,13.557,6.003,12.903,5.29,12.903z"/>
</svg>
