<?xml version="1.0" encoding="utf-8"?>
<!-- Generator: Adobe Illustrator 18.1.1, SVG Export Plug-In . SVG Version: 6.00 Build 0)  -->
<svg version="1.1" id="Capa_1" xmlns="http://www.w3.org/2000/svg" xmlns:xlink="http://www.w3.org/1999/xlink" x="0px" y="0px"
	 viewBox="-129.3 86.8 60.3 88.9" enable-background="new -129.3 86.8 60.3 88.9" xml:space="preserve">
<g>
	<g>
		<path d="M-83.2,119.4c-3.4,0-6.4,1.2-8.8,3.2c-1-0.8-1.8-1.7-2.1-2.8c6.4-2.5,11-8.6,11-15.9c0-9.4-7.6-17.1-17.1-17.1
			c-9.4,0-17.1,7.6-17.1,17.1c0,7.2,4.5,13.3,10.8,15.8c-3.1,5.6-22.7,6.5-22.7,19.3c0,7.2,2.6,15.3,7,22c-0.6,3.6-0.1,6.9,1.8,9.6
			c2.3,3.3,6.4,5.1,11.3,5.1l0,0c1.8,0,3.6-0.3,5.5-0.7c1.1,0.2,2.2,0.3,3.4,0.3c15.3,0,27.7-18.4,28.9-34c1.5-2.2,2.3-4.9,2.3-7.7
			C-69.1,125.7-75.4,119.4-83.2,119.4z M-83,144c3.7,5.6-0.8,15.4-10.1,22.1c-9.5,6.8-20.4,7.8-24.3,2.3c-3.9-5.5,0.5-15.5,10-22.3
			c5.5-3.9,11.4-5.9,16.3-5.8c-1.6-1.8-2.6-4.2-2.6-6.8c0-5.8,4.7-10.5,10.5-10.5s10.5,4.7,10.5,10.5C-72.7,139.3-77.3,143.9-83,144
			z"/>
		<path d="M-97.4,151c0,0-1.1-6.2-4.6-4.4c-3.5,1.8-1.1,8.9,3.7,13.3c8.3-4,11.6-8.7,8.6-11.4C-92.8,145.8-97.4,151-97.4,151z"/>
	</g>
</g>
</svg>
