<svg version="1.1" class="resource-icon" xmlns="http://www.w3.org/2000/svg" xmlns:xlink="http://www.w3.org/1999/xlink" x="0px" y="0px" width="50px" viewBox="-144.8 83.4 95.4 95.4" xml:space="preserve">
	<path d="M-67.4,93.8c-0.5,0.7-0.9,1.4-1.2,2.2c-0.8,2.1-0.7,4,0.3,5.6c1.9,3,4.8,8.8,2.6,14c-1.4,3.4-4.6,5.7-9.4,6.8
		c-0.8,0.2-1.5,0.4-2.1,0.6c-0.7,0.2-1.1,0.9-1.2,1.6c0,0.7,0.4,1.4,1,1.7c1.8,0.8,3.4,1.8,4.8,2.8c1.9,0,3.8,0.5,5.6,1.6
		c4.4,2.7,6.3,8.4,5.7,16.9c-0.2,2.3-2.1,4-4.3,4c-0.1,0-0.2,0-0.3,0c-2.4-0.2-4.2-2.3-4-4.7c0.1-0.8,0.1-1.4,0.1-2.1
		c0-0.5-0.3-0.9-0.7-1.1c-0.4-0.2-1-0.1-1.3,0.3c-5.7,6.3-13.1,11.5-27.9,10.5c-15.4-1-25-12.7-22.3-22.4c0,0,0,0,0,0
		c0.2-0.8-0.1-1.6-0.9-2c-4.6-2.5-7.6-7.4-7.5-13c0.1-8,6.8-14.4,14.8-14.2c8,0.1,11.7,9.1,11.5,17.1c0,0.9-0.1,1.8-0.2,2.6
		c-0.1,0.7,0.2,1.3,0.7,1.7c0.5,0.4,1.3,0.5,1.9,0.2c0.3-0.1,0.5-0.3,0.8-0.4c0.3-0.1,0.5-0.3,0.8-0.4c1-2.7,1.4-5.4,0.6-6.9
		c-1.1-2.1-0.4-4.7,1.8-5.9c2.1-1.1,4.7-0.4,5.9,1.8c1.2,2.2,1.6,4.7,1.4,7.1c-0.1,1.5,1,2.8,2.5,3.1c0.8,0.1,1.6,0.3,2.3,0.5
		c0.7,0.2,1.4-0.1,1.8-0.8c1.3-2.1,3.9-3.6,7.8-4.5c3.4-0.8,5.6-2.2,6.4-4.2c1-2.5,0.2-6.2-2.3-10.1c-1.8-2.8-2-6.1-0.7-9.5
		c0.4-1.1,1-2.1,1.7-3.1c-7.3-4.8-15.9-7.6-25.3-7.8c-26.3-0.5-48.1,20.5-48.5,46.8c-0.5,26.3,20.5,48.1,46.8,48.6
		c26.3,0.5,48.1-20.5,48.6-46.8C-49.1,116.5-56.2,102.7-67.4,93.8z"/>
</svg>
